<svg id="eVLDUJGP7ua1" xmlns="http://www.w3.org/2000/svg" xmlns:xlink="http://www.w3.org/1999/xlink" viewBox="0 0 39 26" shape-rendering="geometricPrecision" text-rendering="geometricPrecision"><g transform="translate(-152.918259-95.664139)"><polygon points="-3.534741,-30.209862 3.465259,-30.209862 18.544766,-10.11053 18.544766,-4.209861 2.737475,-4.209861 2.737475,-10.11053 10.465259,-10.11053 10.465259,-12.645411 3.465259,-22.517896 -3.534741,-22.517896 -11.534741,-12.645411 -11.534741,-10.11053 0.701902,-10.11053 0.701902,-4.209861 -20.534741,-4.209861 -20.534741,-10.11053 -3.534741,-30.209862" transform="translate(173.373493 125.874)" fill="#fff" stroke-width="0" stroke-linecap="round"/><polygon points="-1.01786,-4.264562 13.096333,-4.264561 7.450656,2.571289 -1.01786,2.571289 -1.01786,-4.264562" transform="matrix(1.06276 0 0 1 154 99.9287)" fill="#fff" stroke-width="0"/><polygon points="-4.884951,-10.152504 0.307758,-10.152504 5.729788,-2.767244 5.729788,-0.767244 -10.759474,-0.767244 -10.759474,-2.767244 -4.884951,-10.152504" transform="translate(175.461688 115.249474)" fill="#fff" stroke-width="0"/></g></svg>
