<svg xmlns="http://www.w3.org/2000/svg" xmlns:xlink="http://www.w3.org/1999/xlink" width="256" zoomAndPan="magnify" viewBox="0 0 192 120.749998" height="161" preserveAspectRatio="xMidYMid meet" version="1.0"><defs><g/><clipPath id="1b40a81900"><path d="M 5 0.625 L 46 0.625 L 46 61 L 5 61 Z M 5 0.625 " clip-rule="nonzero"/></clipPath><clipPath id="4af4ead63f"><rect x="0" width="48" y="0" height="69"/></clipPath></defs><g fill="#ffffff" fill-opacity="1"><g transform="translate(73.563538, 53.698493)"><g><path d="M 1.328125 -18.25 L 16.078125 -18.25 L 16.078125 -14.3125 L 6.609375 -3.828125 L 16.453125 -3.828125 L 16.453125 0 L 0.671875 0 L 0.671875 -3.734375 L 10.28125 -14.421875 L 1.328125 -14.421875 Z M 1.328125 -18.25 "/></g></g></g><g fill="#ffffff" fill-opacity="1"><g transform="translate(88.965688, 53.698493)"><g><path d="M 2.03125 -18.25 L 6.65625 -18.25 L 6.65625 -15.09375 L 6.71875 -15.09375 C 7.050781 -15.707031 7.414062 -16.289062 7.8125 -16.84375 C 8.207031 -17.394531 8.710938 -17.84375 9.328125 -18.1875 C 9.941406 -18.539062 10.734375 -18.71875 11.703125 -18.71875 C 11.816406 -18.71875 11.976562 -18.710938 12.1875 -18.703125 C 12.40625 -18.691406 12.5625 -18.675781 12.65625 -18.65625 L 12.65625 -13.765625 C 12.226562 -13.835938 11.765625 -13.875 11.265625 -13.875 C 10.015625 -13.875 9.070312 -13.65625 8.4375 -13.21875 C 7.8125 -12.789062 7.382812 -12.242188 7.15625 -11.578125 C 6.925781 -10.910156 6.8125 -10.238281 6.8125 -9.5625 L 6.8125 0 L 2.03125 0 Z M 2.03125 -18.25 "/></g></g></g><g fill="#ffffff" fill-opacity="1"><g transform="translate(100.466363, 53.698493)"><g><path d="M 6.8125 -18.25 L 6.8125 0 L 2.03125 0 L 2.03125 -18.25 Z M 6.8125 -24.828125 L 6.8125 -20.390625 L 2.03125 -20.390625 L 2.03125 -24.828125 Z M 6.8125 -24.828125 "/></g></g></g><g fill="#ffffff" fill-opacity="1"><g transform="translate(107.624528, 53.698493)"><g><path d="M 13.359375 -5.359375 L 18.28125 -5.359375 C 17.875 -3.910156 17.234375 -2.753906 16.359375 -1.890625 C 15.492188 -1.035156 14.523438 -0.425781 13.453125 -0.0625 C 12.378906 0.289062 11.320312 0.46875 10.28125 0.46875 C 8.582031 0.46875 7.039062 0.160156 5.65625 -0.453125 C 4.28125 -1.078125 3.191406 -2.117188 2.390625 -3.578125 C 1.585938 -5.035156 1.1875 -7.007812 1.1875 -9.5 C 1.1875 -9.945312 1.238281 -10.546875 1.34375 -11.296875 C 1.445312 -12.046875 1.65625 -12.84375 1.96875 -13.6875 C 2.28125 -14.53125 2.757812 -15.335938 3.40625 -16.109375 C 4.050781 -16.878906 4.90625 -17.503906 5.96875 -17.984375 C 7.03125 -18.472656 8.351562 -18.71875 9.9375 -18.71875 C 11.65625 -18.71875 13.148438 -18.394531 14.421875 -17.75 C 15.703125 -17.113281 16.695312 -16.125 17.40625 -14.78125 C 18.125 -13.445312 18.484375 -11.734375 18.484375 -9.640625 L 18.484375 -7.84375 L 6.109375 -7.84375 C 6.109375 -7.5 6.144531 -7.070312 6.21875 -6.5625 C 6.300781 -6.050781 6.476562 -5.550781 6.75 -5.0625 C 7.019531 -4.582031 7.429688 -4.175781 7.984375 -3.84375 C 8.535156 -3.519531 9.300781 -3.359375 10.28125 -3.359375 C 10.957031 -3.359375 11.59375 -3.53125 12.1875 -3.875 C 12.789062 -4.226562 13.179688 -4.722656 13.359375 -5.359375 Z M 6.109375 -10.953125 L 13.5625 -10.953125 C 13.476562 -11.929688 13.238281 -12.695312 12.84375 -13.25 C 12.445312 -13.800781 11.984375 -14.195312 11.453125 -14.4375 C 10.921875 -14.675781 10.394531 -14.796875 9.875 -14.796875 C 8.738281 -14.796875 7.859375 -14.453125 7.234375 -13.765625 C 6.617188 -13.085938 6.242188 -12.148438 6.109375 -10.953125 Z M 6.109375 -10.953125 "/></g></g></g><g fill="#ffffff" fill-opacity="1"><g transform="translate(125.605049, 53.698493)"><g><path d="M 6.8125 -24.625 L 6.8125 0 L 2.03125 0 L 2.03125 -24.625 Z M 6.8125 -24.625 "/></g></g></g><g transform="matrix(1, 0, 0, 1, 22, 25)"><g clip-path="url(#4af4ead63f)"><g clip-path="url(#1b40a81900)"><g fill="#ffffff" fill-opacity="1"><g transform="translate(1.502985, 60.120183)"><g><path d="M 3.703125 -51.859375 C 3.703125 -56.804688 6.171875 -59.28125 11.109375 -59.28125 L 37.046875 -59.28125 C 41.984375 -59.28125 44.453125 -56.804688 44.453125 -51.859375 L 44.453125 0 L 37.046875 0 L 37.046875 -51.859375 L 11.109375 -51.859375 L 11.109375 0 L 3.703125 0 Z M 18.53125 -14.8125 L 18.53125 -22.234375 L 29.640625 -22.234375 L 29.640625 -14.8125 Z M 18.53125 -14.8125 "/></g></g></g></g></g></g><g fill="#ffffff" fill-opacity="1"><g transform="translate(72.155304, 84.594526)"><g><path d="M 6.8125 -24.625 L 6.8125 0 L 2.03125 0 L 2.03125 -24.625 Z M 6.8125 -24.625 "/></g></g></g><g fill="#ffffff" fill-opacity="1"><g transform="translate(79.313468, 84.594526)"><g><path d="M 0.4375 -18.25 L 5.5625 -18.25 L 9.4375 -4.78125 L 9.5 -4.78125 L 13.5 -18.25 L 18.625 -18.25 L 12.046875 0 L 6.984375 0 Z M 0.4375 -18.25 "/></g></g></g><g fill="#ffffff" fill-opacity="1"><g transform="translate(96.683316, 84.594526)"><g><path d="M 6.375 -12.34375 L 1.765625 -12.34375 C 1.898438 -13.75 2.222656 -14.875 2.734375 -15.71875 C 3.242188 -16.570312 3.875 -17.210938 4.625 -17.640625 C 5.382812 -18.066406 6.222656 -18.351562 7.140625 -18.5 C 8.054688 -18.644531 8.976562 -18.71875 9.90625 -18.71875 C 10.5625 -18.71875 11.296875 -18.648438 12.109375 -18.515625 C 12.921875 -18.378906 13.71875 -18.128906 14.5 -17.765625 C 15.28125 -17.410156 15.921875 -16.878906 16.421875 -16.171875 C 16.921875 -15.472656 17.171875 -14.5625 17.171875 -13.4375 L 17.171875 -3.5625 C 17.171875 -2.5 17.269531 -1.789062 17.46875 -1.4375 C 17.675781 -1.09375 17.925781 -0.863281 18.21875 -0.75 L 18.21875 0 L 13.0625 0 C 12.925781 -0.445312 12.828125 -0.796875 12.765625 -1.046875 C 12.710938 -1.296875 12.664062 -1.671875 12.625 -2.171875 C 12.257812 -1.804688 11.828125 -1.414062 11.328125 -1 C 10.828125 -0.582031 10.203125 -0.234375 9.453125 0.046875 C 8.710938 0.328125 7.800781 0.46875 6.71875 0.46875 C 5.8125 0.46875 4.929688 0.289062 4.078125 -0.0625 C 3.234375 -0.425781 2.539062 -1.003906 2 -1.796875 C 1.457031 -2.585938 1.1875 -3.601562 1.1875 -4.84375 C 1.1875 -6.25 1.578125 -7.390625 2.359375 -8.265625 C 3.140625 -9.148438 4.175781 -9.820312 5.46875 -10.28125 C 6.769531 -10.75 8.179688 -11.039062 9.703125 -11.15625 C 10.722656 -11.25 11.441406 -11.429688 11.859375 -11.703125 C 12.273438 -11.972656 12.484375 -12.320312 12.484375 -12.75 C 12.484375 -13.425781 12.300781 -13.914062 11.9375 -14.21875 C 11.570312 -14.53125 11.144531 -14.71875 10.65625 -14.78125 C 10.175781 -14.851562 9.734375 -14.890625 9.328125 -14.890625 C 8.535156 -14.890625 7.9375 -14.75 7.53125 -14.46875 C 7.125 -14.1875 6.835938 -13.851562 6.671875 -13.46875 C 6.515625 -13.082031 6.414062 -12.707031 6.375 -12.34375 Z M 12.484375 -8.890625 C 12.253906 -8.703125 11.898438 -8.53125 11.421875 -8.375 C 10.953125 -8.21875 10.222656 -8.0625 9.234375 -7.90625 C 8.328125 -7.75 7.554688 -7.5 6.921875 -7.15625 C 6.285156 -6.820312 5.96875 -6.15625 5.96875 -5.15625 C 5.96875 -4.320312 6.222656 -3.742188 6.734375 -3.421875 C 7.242188 -3.109375 7.734375 -2.953125 8.203125 -2.953125 C 8.910156 -2.953125 9.59375 -3.097656 10.25 -3.390625 C 10.90625 -3.679688 11.441406 -4.097656 11.859375 -4.640625 C 12.273438 -5.191406 12.484375 -5.828125 12.484375 -6.546875 Z M 12.484375 -8.890625 "/></g></g></g><g fill="#ffffff" fill-opacity="1"><g transform="translate(114.222791, 84.594526)"><g><path d="M 2.03125 -18.25 L 6.65625 -18.25 L 6.65625 -15.09375 L 6.71875 -15.09375 C 7.050781 -15.707031 7.414062 -16.289062 7.8125 -16.84375 C 8.207031 -17.394531 8.710938 -17.84375 9.328125 -18.1875 C 9.941406 -18.539062 10.734375 -18.71875 11.703125 -18.71875 C 11.816406 -18.71875 11.976562 -18.710938 12.1875 -18.703125 C 12.40625 -18.691406 12.5625 -18.675781 12.65625 -18.65625 L 12.65625 -13.765625 C 12.226562 -13.835938 11.765625 -13.875 11.265625 -13.875 C 10.015625 -13.875 9.070312 -13.65625 8.4375 -13.21875 C 7.8125 -12.789062 7.382812 -12.242188 7.15625 -11.578125 C 6.925781 -10.910156 6.8125 -10.238281 6.8125 -9.5625 L 6.8125 0 L 2.03125 0 Z M 2.03125 -18.25 "/></g></g></g><g fill="#ffffff" fill-opacity="1"><g transform="translate(125.723466, 84.594526)"><g><path d="M 6.375 -12.34375 L 1.765625 -12.34375 C 1.898438 -13.75 2.222656 -14.875 2.734375 -15.71875 C 3.242188 -16.570312 3.875 -17.210938 4.625 -17.640625 C 5.382812 -18.066406 6.222656 -18.351562 7.140625 -18.5 C 8.054688 -18.644531 8.976562 -18.71875 9.90625 -18.71875 C 10.5625 -18.71875 11.296875 -18.648438 12.109375 -18.515625 C 12.921875 -18.378906 13.71875 -18.128906 14.5 -17.765625 C 15.28125 -17.410156 15.921875 -16.878906 16.421875 -16.171875 C 16.921875 -15.472656 17.171875 -14.5625 17.171875 -13.4375 L 17.171875 -3.5625 C 17.171875 -2.5 17.269531 -1.789062 17.46875 -1.4375 C 17.675781 -1.09375 17.925781 -0.863281 18.21875 -0.75 L 18.21875 0 L 13.0625 0 C 12.925781 -0.445312 12.828125 -0.796875 12.765625 -1.046875 C 12.710938 -1.296875 12.664062 -1.671875 12.625 -2.171875 C 12.257812 -1.804688 11.828125 -1.414062 11.328125 -1 C 10.828125 -0.582031 10.203125 -0.234375 9.453125 0.046875 C 8.710938 0.328125 7.800781 0.46875 6.71875 0.46875 C 5.8125 0.46875 4.929688 0.289062 4.078125 -0.0625 C 3.234375 -0.425781 2.539062 -1.003906 2 -1.796875 C 1.457031 -2.585938 1.1875 -3.601562 1.1875 -4.84375 C 1.1875 -6.25 1.578125 -7.390625 2.359375 -8.265625 C 3.140625 -9.148438 4.175781 -9.820312 5.46875 -10.28125 C 6.769531 -10.75 8.179688 -11.039062 9.703125 -11.15625 C 10.722656 -11.25 11.441406 -11.429688 11.859375 -11.703125 C 12.273438 -11.972656 12.484375 -12.320312 12.484375 -12.75 C 12.484375 -13.425781 12.300781 -13.914062 11.9375 -14.21875 C 11.570312 -14.53125 11.144531 -14.71875 10.65625 -14.78125 C 10.175781 -14.851562 9.734375 -14.890625 9.328125 -14.890625 C 8.535156 -14.890625 7.9375 -14.75 7.53125 -14.46875 C 7.125 -14.1875 6.835938 -13.851562 6.671875 -13.46875 C 6.515625 -13.082031 6.414062 -12.707031 6.375 -12.34375 Z M 12.484375 -8.890625 C 12.253906 -8.703125 11.898438 -8.53125 11.421875 -8.375 C 10.953125 -8.21875 10.222656 -8.0625 9.234375 -7.90625 C 8.328125 -7.75 7.554688 -7.5 6.921875 -7.15625 C 6.285156 -6.820312 5.96875 -6.15625 5.96875 -5.15625 C 5.96875 -4.320312 6.222656 -3.742188 6.734375 -3.421875 C 7.242188 -3.109375 7.734375 -2.953125 8.203125 -2.953125 C 8.910156 -2.953125 9.59375 -3.097656 10.25 -3.390625 C 10.90625 -3.679688 11.441406 -4.097656 11.859375 -4.640625 C 12.273438 -5.191406 12.484375 -5.828125 12.484375 -6.546875 Z M 12.484375 -8.890625 "/></g></g></g><g fill="#ffffff" fill-opacity="1"><g transform="translate(143.262942, 84.594526)"><g><path d="M 18.890625 -24.625 L 18.890625 0 L 14.21875 0 L 14.21875 -2.3125 L 14.140625 -2.3125 C 13.578125 -1.289062 12.804688 -0.570312 11.828125 -0.15625 C 10.859375 0.257812 9.878906 0.46875 8.890625 0.46875 C 7.535156 0.46875 6.367188 0.195312 5.390625 -0.34375 C 4.421875 -0.882812 3.625 -1.617188 3 -2.546875 C 2.375 -3.472656 1.914062 -4.523438 1.625 -5.703125 C 1.332031 -6.878906 1.1875 -8.085938 1.1875 -9.328125 C 1.1875 -11.429688 1.535156 -13.175781 2.234375 -14.5625 C 2.941406 -15.957031 3.875 -17 5.03125 -17.6875 C 6.195312 -18.375 7.445312 -18.71875 8.78125 -18.71875 C 9.820312 -18.71875 10.679688 -18.5625 11.359375 -18.25 C 12.035156 -17.9375 12.585938 -17.554688 13.015625 -17.109375 C 13.453125 -16.671875 13.796875 -16.257812 14.046875 -15.875 L 14.109375 -15.875 L 14.109375 -24.625 Z M 10.203125 -14.59375 C 9.191406 -14.59375 8.382812 -14.320312 7.78125 -13.78125 C 7.1875 -13.25 6.757812 -12.5625 6.5 -11.71875 C 6.238281 -10.875 6.109375 -9.960938 6.109375 -8.984375 C 6.109375 -8.441406 6.171875 -7.851562 6.296875 -7.21875 C 6.421875 -6.59375 6.632812 -5.988281 6.9375 -5.40625 C 7.238281 -4.832031 7.644531 -4.363281 8.15625 -4 C 8.664062 -3.632812 9.304688 -3.453125 10.078125 -3.453125 C 11.085938 -3.453125 11.90625 -3.703125 12.53125 -4.203125 C 13.15625 -4.703125 13.609375 -5.351562 13.890625 -6.15625 C 14.171875 -6.957031 14.3125 -7.8125 14.3125 -8.71875 C 14.3125 -9.6875 14.195312 -10.617188 13.96875 -11.515625 C 13.75 -12.410156 13.34375 -13.144531 12.75 -13.71875 C 12.164062 -14.300781 11.316406 -14.59375 10.203125 -14.59375 Z M 10.203125 -14.59375 "/></g></g></g><g fill="#ffffff" fill-opacity="1"><g transform="translate(162.49872, 84.594526)"><g><path d="M 10.515625 -18.71875 C 12.140625 -18.71875 13.660156 -18.378906 15.078125 -17.703125 C 16.492188 -17.023438 17.632812 -15.976562 18.5 -14.5625 C 19.375 -13.15625 19.8125 -11.351562 19.8125 -9.15625 C 19.8125 -6.96875 19.375 -5.160156 18.5 -3.734375 C 17.632812 -2.304688 16.492188 -1.25 15.078125 -0.5625 C 13.660156 0.125 12.140625 0.46875 10.515625 0.46875 C 8.890625 0.46875 7.367188 0.125 5.953125 -0.5625 C 4.535156 -1.25 3.382812 -2.296875 2.5 -3.703125 C 1.625 -5.117188 1.1875 -6.925781 1.1875 -9.125 C 1.1875 -11.320312 1.625 -13.125 2.5 -14.53125 C 3.382812 -15.945312 4.535156 -17 5.953125 -17.6875 C 7.367188 -18.375 8.890625 -18.71875 10.515625 -18.71875 Z M 10.515625 -14.6875 C 9.585938 -14.6875 8.832031 -14.507812 8.25 -14.15625 C 7.675781 -13.8125 7.226562 -13.359375 6.90625 -12.796875 C 6.59375 -12.242188 6.378906 -11.644531 6.265625 -11 C 6.160156 -10.363281 6.109375 -9.75 6.109375 -9.15625 C 6.109375 -8.570312 6.160156 -7.957031 6.265625 -7.3125 C 6.378906 -6.664062 6.59375 -6.054688 6.90625 -5.484375 C 7.226562 -4.921875 7.675781 -4.457031 8.25 -4.09375 C 8.832031 -3.738281 9.585938 -3.5625 10.515625 -3.5625 C 11.441406 -3.5625 12.191406 -3.734375 12.765625 -4.078125 C 13.347656 -4.429688 13.789062 -4.890625 14.09375 -5.453125 C 14.394531 -6.023438 14.601562 -6.632812 14.71875 -7.28125 C 14.832031 -7.925781 14.890625 -8.539062 14.890625 -9.125 C 14.890625 -9.707031 14.832031 -10.320312 14.71875 -10.96875 C 14.601562 -11.613281 14.394531 -12.21875 14.09375 -12.78125 C 13.789062 -13.351562 13.347656 -13.8125 12.765625 -14.15625 C 12.191406 -14.507812 11.441406 -14.6875 10.515625 -14.6875 Z M 10.515625 -14.6875 "/></g></g></g></svg>